<svg width="24" height="24" viewBox="0 0 24 24" fill="none" xmlns="http://www.w3.org/2000/svg">
<path d="M20.2356 8.57129C19.9976 7.61932 20.4736 6.10197 22 5.56558L20.3678 5.4786C20.3678 5.4786 19.75 3.30406 16.9159 3.11077C14.0817 2.91506 12.2284 3.03828 12.2284 3.03828C12.2284 3.03828 14.3293 4.38167 13.488 6.77608C12.8726 8.04456 11.9062 9.08593 10.8726 10.2723C10.8413 10.3037 10.8125 10.3351 10.7885 10.3617C7.37019 14.2348 2 20.396 2 20.396C7.91106 21.952 11.8726 20.2437 14.2163 18.1948C14.7091 18.19 15.0793 18.1876 15.3293 18.1876C18.5938 18.1876 21.3534 15.3462 21.2404 12.1859C21.1635 10.0137 20.4736 9.52325 20.2356 8.57129Z" fill="#333333"/>
</svg>
