<svg width="24" height="24" viewBox="0 0 24 24" fill="none" xmlns="http://www.w3.org/2000/svg">
<path fill-rule="evenodd" clip-rule="evenodd" d="M12 22C17.5228 22 22 17.5228 22 12C22 6.47715 17.5228 2 12 2C6.47715 2 2 6.47715 2 12C2 17.5228 6.47715 22 12 22ZM18.5893 6.63011C18.3491 6.93878 16.9115 8.72358 13.8438 9.97183C14.0391 10.3731 14.2343 10.7961 14.4078 11.2083C14.435 11.2717 14.4602 11.335 14.4852 11.3976C14.52 11.4849 14.5543 11.5708 14.5922 11.6529C17.3399 11.3068 20.0673 11.8329 20.4996 11.9171C20.4999 11.9447 20.5 11.9723 20.5 12C20.5 12.4624 20.4631 12.9162 20.392 13.3586C20.0114 13.2365 17.7169 12.5849 15.1019 12.9978C16.1952 16.0017 16.6549 18.455 16.7553 19.0464C16.3096 19.3478 15.8338 19.608 15.3333 19.8215C15.1928 19.0216 14.7009 16.4457 13.5184 13.3883C13.5076 13.3937 13.4995 13.3964 13.4915 13.3991C13.4833 13.4018 13.4751 13.4045 13.4642 13.41C8.79659 15.0394 7.02283 18.2279 6.77993 18.7088C6.37982 18.397 6.00834 18.0502 5.67007 17.673C5.99386 17.1408 8.32526 13.4615 12.5857 12.0868C12.6401 12.0704 12.6973 12.0541 12.7545 12.0378C12.8112 12.0216 12.8679 12.0053 12.9219 11.9891C12.705 11.5011 12.4773 11.013 12.2277 10.5358C8.10938 11.7724 4.10237 11.7636 3.50356 11.7518C3.51824 11.2399 3.57819 10.7393 3.67954 10.2538C4.22599 10.2542 7.66019 10.2441 11.5336 9.21258C10.1488 6.76 8.67115 4.68864 8.38636 4.30419C8.9031 4.06113 9.44828 3.86858 10.0156 3.73291C10.3154 4.14169 11.8207 6.20144 13.1822 8.70283C16.1304 7.59727 17.4329 5.93973 17.6454 5.64539C17.9856 5.94784 18.3013 6.27719 18.5893 6.63011Z" fill="#D9D9D9"/>
</svg>
