<svg id="图层_1" data-name="图层 1" xmlns="http://www.w3.org/2000/svg" viewBox="0 0 512 512"><path d="M421.75,293.2c-.16,2-.41,3.43-.39,4.88.39,28.83-8.46,55.52-19.1,81.76-10.21,25.2-25.11,47.48-45.95,64.81-11.6,9.65-25.15,17.35-38.71,24.16-24.91,12.5-51.62,11.42-78.47,8-18.36-2.33-35.89-7-51.86-16.41-13.84-8.18-25.54-19-36-31.15C125.4,399.3,108.38,365.09,101.36,326c-1.32-7.34-2.94-14.64-4.75-21.88-.27-1.07-2.26-1.87-3.6-2.44-.59-.25-1.55.41-2.35.66-8.52,2.66-8.49,2.56-11.59-6.29-7.28-20.78-9-42-6.44-63.83,3.68-31.11,14.18-59.83,28.09-87.75a191.2,191.2,0,0,1,49.52-62.23,104.82,104.82,0,0,1,52.47-23.54c9.33-1.38,18.63-3.45,28-3.87,6.77-.29,13.64,1.67,20.47,2.53,1.45.18,3.32.51,4.36-.18,9.1-6,19-6.17,29.27-4.58,6.53,1,13.12,1.64,19.64,2.72,17.14,2.83,31.9,11,45.56,21.23,6.6,4.91,12.61,10.68,18.61,16.35,13.8,13,26.08,27.49,34.28,44.66,13.16,27.56,26.35,55.25,31.53,85.72a293.41,293.41,0,0,1,3.47,33.63,235.15,235.15,0,0,1-.37,29.2c-.53,7.39-3.18,10.44-13.19,7.74ZM170.29,252.36c3.31-1.62,5.68-2.47,7.71-3.83,13.07-8.78,26-17.74,39.13-26.44,1.67-1.11,4.08-1.09,6.15-1.6.21,2.28.9,4.64.52,6.82-.54,3.17-1.85,6.2-3.12,10.17a19.1,19.1,0,0,0,2.95-1.42c9.16-7.35,18.36-14.65,27.42-22.13,2.92-2.41,5.29-5.5,8.23-7.88,3.23-2.61,6.62-1,6.7,3.19.07,3.74-.31,7.49-.52,11.83,15.48-8.63,25.05-23.22,38-35.45,5.34,19.71,19.13,31.45,35.46,43.16.77-6.38,1.41-11.63,2.2-18.08,3.21,2.44,6.18,4.18,8.48,6.57,4,4.17,7.23,9.17,11.48,13.06,15.27,14,30.62,27.88,46.39,41.28,6,5.07,13.16,8.69,20.82,13.63,1.33-4.59,2.93-8.11,3.27-11.74a76.44,76.44,0,0,0-.31-14.34c-1.07-11.05-1.33-22.34-3.93-33-4.09-16.89-9.25-33.58-15-50-8.49-24.26-20-46.92-37.69-66.1-13.15-14.29-25.78-29.06-44-37.35-14.47-6.59-29.36-11.61-45.46-11.5-13.72.09-27.46,1.37-41.13.79-19.45-.82-38,3.85-56.16,9.11-27.21,7.91-46.46,27.41-63.1,49.59A225.76,225.76,0,0,0,93.2,179.19C87.8,194,84.64,209.8,81.52,225.37c-4.8,23.91-2.59,47.53,5.47,70.9a145.25,145.25,0,0,0,38.15-22.6c14.46-12.12,27.76-25.62,41.71-38.38,1.36-1.25,3.7-1.43,5.59-2.11.59,1.89,1.94,3.91,1.64,5.64C173.35,243,171.85,247,170.29,252.36Zm175.4-27.46c-.36,2.91-.64,6.3-1.25,9.63s-2.54,4.74-5.65,2.63c-5.86-4-12-7.68-17.31-12.32-8.44-7.4-16.68-15.16-20.26-25.63-10,9.24-19.39,18.58-29.55,27-4.13,3.43-9.73,5.38-15,7.1-3.46,1.15-4.87-.84-3.12-4.52s3.06-7.48,4.57-11.23l-1.05-.92A28.68,28.68,0,0,0,253,220a94.52,94.52,0,0,1-26.35,21.8,50.28,50.28,0,0,1-11,4.43c-1.38.37-3.67-.74-4.74-1.91-.57-.63.33-3,1-4.29,1.54-2.85,3.39-5.54,5.11-8.3l-.95-.55-41.92,28c11.22,0,25.12-.58,39,.16s22.09,2.35,26.8,19.32c1.2,4.34,1.48,8.94,2.23,13.66,7.14-.63,14.06-1.46,21-1.8,10.44-.51,10.44-.36,11.08-10.5.61-9.75,10.28-21.74,19.6-23.47a155.44,155.44,0,0,1,59.41.75c11.33,2.28,17.66,8.27,18.12,17.11.41,7.9-.12,15.87-.46,23.79-.18,4.31-1,8.58-1.19,12.88-.64,14.2-7,22.52-20.25,27.77-16.05,6.37-32,4.75-47.83,0-4.82-1.45-9.49-4.69-13.25-8.17-8.12-7.52-11.19-17.79-13.53-28.28-.47-2.1-.33-4.9-3.89-4.63-10,.77-20.07,1.47-30.05,2.19-.85,5.28-1.36,10.24-2.47,15.07-4.93,21.27-13.47,33-40,33.53-6.43.13-12.9-1-19.32-1.74-10.61-1.23-19-6.66-24.2-15.66-7.28-12.67-11.2-26.16-8.53-41.34,2.07-11.75,4.34-22.61,17.18-27.7-4.92-2.63-2.86-5.44-1.16-8.42,1.48-2.58,2.64-5.34,3.93-8a35.32,35.32,0,0,0-8.45,7.54c-13.78,15.73-29.08,29.58-47.67,39.56-1.45.78-2.35,4.15-2.13,6.18a201.36,201.36,0,0,0,10.51,46.52c8.25,23.22,16.6,46.26,32.06,66,19.35,24.68,43.31,42.5,74.05,50,10.58,2.56,21.6,3.34,32.43,4.81a99.17,99.17,0,0,0,49.46-5.36c34.55-13.25,59.93-37.23,77.51-69.23s27.06-66.55,25.58-103.51a8.07,8.07,0,0,0-2.24-5.1c-8.15-7.52-16.69-14.63-24.75-22.25C370.34,249.13,358.26,237.13,345.69,224.9ZM201,263.67c-9.42.85-17.51,1.43-25.56,2.34-14.5,1.64-21.94,8-23.71,21.91a58.26,58.26,0,0,0,8.36,38.72c3,4.77,6.49,9.67,12.48,10.76,9.09,1.66,18.27,3,27.47,3.86,12.12,1.12,27.81-7.68,30.92-22.95,1.42-7,2.91-14,3.83-21.05,1-8,1.27-16.15-3.45-23.15-1.88-2.79-5-5.66-8.15-6.48C215.62,265.62,207.7,264.79,201,263.67Zm164,26.2c-.43-5.36-.73-9-1-12.64-.73-8.85-2.36-10.44-10.92-12.77-18.7-5.1-37.56-3.95-56.4-1.5-10,1.3-14.85,6.27-15.87,16.25-1.31,12.88,0,25.77,5.72,37.39a30.2,30.2,0,0,0,12.92,13.16c17,8.21,34.57,8.34,51.46-1.16,5.25-3,10.28-6.35,11.08-13.18C363.08,306.36,364.17,297.3,365.05,289.87Z"/><path d="M243.62,431.17c.86.59,1.23,1,1.66,1.12,13.2,2.5,26.44,3.75,38.93-2.53,5.25-2.63,9.76-6.71,14.72-9.95,1.44-.94,3.28-1.26,4.93-1.87l1.41,1.94c-2.62,2.93-4.85,6.37-7.92,8.69-21.81,16.46-53.3,13.93-72.91-2.82a43.78,43.78,0,0,1-3.65-4c3-3.47,5.47-6.92,8.49-9.84,5.51-5.32,10.56-6.09,14.61-2.75s5.45,12,2.68,17C245.7,427.74,244.74,429.28,243.62,431.17Zm-5.91-11.63a48.1,48.1,0,0,0-1.75,6.1,2.87,2.87,0,0,0,1,2.39c.61.36,2.29.18,2.52-.26,1.68-3.33,4-6.69,4.41-10.23.52-4.52-3.39-7.59-6.8-6A18.58,18.58,0,0,0,227,421.9C231.7,428.1,233.73,422,237.71,419.54Z"/><path d="M260.8,343.12c2.31,2.41,4.76,4.69,6.88,7.26a81.54,81.54,0,0,1,7.35,10c.83,1.39,1.09,4.58.24,5.27-5.16,4.22-10.72,8-16.53,12.14-2.27-5.55,1.36-7.62,4-9.67,7.62-6,7.69-5.85,2.31-13.72-2.17-3.17-4.17-6.45-6.25-9.67Z"/><path d="M206.51,303c-1,3.23-1.6,6.21-2.95,8.78-2.16,4.14-6.68,6.29-10.42,4.65-3.46-1.51-7.2-5.44-8.1-9-1.23-4.85-.14-10.38.44-15.57.52-4.59,3.65-6.72,8.21-6.79,4.17-.06,7.7,1.57,9.27,5.34C204.65,294.41,205.4,298.84,206.51,303Z"/><path d="M337.27,296.69c0,.33,0,.66,0,1-.28,8.19-2.8,12.23-8.13,13-5.6.83-11.49-3.31-13.05-10.48a23.52,23.52,0,0,1,.84-12.42c.93-2.57,4.71-5.88,7.05-5.76a17.8,17.8,0,0,1,10.6,4.94c2.16,2.13,2.36,6.24,3.43,9.48Z"/></svg>